<?xml version="1.0" ?><svg height="512px" version="1.1" viewBox="0 0 512 512" width="512px" xmlns="http://www.w3.org/2000/svg" xmlns:xlink="http://www.w3.org/1999/xlink"><title/><desc/><defs/><g fill="none" fill-rule="evenodd" id="SVG" stroke="none" stroke-width="1"><g id="Macaron"><g id="3" transform="translate(0.000000, 64.000000)"><path d="M447.458249,180.920486 L221.202681,180.920486 C197.456951,180.920486 178.2016,161.597917 178.2016,137.769294 L178.2016,131.277522 C178.2016,107.441956 197.456951,88.1193865 221.202681,88.1193865 L447.458249,88.1193865 C471.210897,88.1193865 490.45933,107.441956 490.45933,131.277522 L490.45933,137.769294 C490.45933,161.597917 471.210897,180.920486 447.458249,180.920486" fill="#FEFEFE" id="Fill-1"/><path d="M444.223654,88.122858 L412.742573,88.122858 C438.280303,88.122858 458.981708,108.896529 458.981708,134.523408 C458.981708,160.150287 438.280303,180.923958 412.742573,180.923958 L444.223654,180.923958 C469.761384,180.923958 490.462789,160.150287 490.462789,134.523408 C490.462789,108.896529 469.761384,88.122858 444.223654,88.122858" fill="#010202" id="Fill-5" opacity="0.3"/><path d="M221.202681,98.5381603 C203.213492,98.5381603 188.579978,113.222757 188.579978,131.274745 L188.579978,137.766517 C188.579978,155.818504 203.213492,170.503101 221.202681,170.503101 L447.458249,170.503101 C465.447438,170.503101 480.080951,155.818504 480.080951,137.766517 L480.080951,131.274745 C480.080951,113.222757 465.447438,98.5381603 447.458249,98.5381603 L221.202681,98.5381603 Z M447.458249,191.332317 L221.202681,191.332317 C191.7696,191.332317 167.823222,167.302345 167.823222,137.766517 L167.823222,131.274745 C167.823222,101.738916 191.7696,77.7089444 221.202681,77.7089444 L447.458249,77.7089444 C476.89133,77.7089444 500.837708,101.738916 500.837708,131.274745 L500.837708,137.766517 C500.837708,167.302345 476.89133,191.332317 447.458249,191.332317 L447.458249,191.332317 Z" fill="#2E2E30" id="Fill-3"/><path d="M169.815178,82.3510823 C169.815178,44.7890629 243.771503,10.4139136 334.997449,10.4139136 C426.230314,10.4139136 500.186638,44.7890629 500.186638,82.3510823 L500.276584,83.2120232 C500.276584,95.0083025 489.704476,104.575856 476.662314,104.575856 L193.339503,104.575856 C180.297341,104.575856 169.725232,95.0083025 169.725232,83.2120232" fill="#A863A8" id="Fill-7"/><path d="M500.184562,82.3510823 C500.184562,44.7890629 426.228238,10.4139136 335.002292,10.4139136 C327.522941,10.4139136 320.175049,10.6708073 312.965535,11.1151639 C393.76467,16.0933465 456.111049,47.8648438 456.111049,82.3510823 L456.200995,83.2120232 C456.200995,95.0083025 445.628886,104.575856 432.593643,104.575856 L476.660238,104.575856 C489.7024,104.575856 500.274508,95.0083025 500.274508,83.2120232 L500.184562,82.3510823 Z" fill="#010202" id="Fill-11" opacity="0.3"/><path d="M180.114681,83.6723489 C180.405276,89.4975863 186.224086,94.1633306 193.336735,94.1633306 L476.659546,94.1633306 C483.772195,94.1633306 489.591005,89.4975863 489.8816,83.6723489 L489.867762,83.491829 C489.826249,83.10996 489.805492,82.7280911 489.805492,82.3531652 C489.805492,47.700293 406.584735,20.8306045 335.0016,20.8306045 C263.411546,20.8306045 180.197708,47.700293 180.197708,82.3531652 C180.197708,82.7975218 180.170032,83.2418784 180.114681,83.6723489 M476.659546,114.992547 L193.336735,114.992547 C174.593384,114.992547 159.344086,100.73842 159.344086,83.2141061 C159.344086,82.721148 159.378681,82.235133 159.44787,81.7699472 C160.112086,36.6260932 238.607222,0.00138861439 335.0016,0.00138861439 C431.361384,0.00138861439 509.8496,36.605264 510.55533,81.7352318 L510.596843,82.0684992 C510.638357,82.4503682 510.652195,82.8322372 510.652195,83.2141061 C510.652195,100.73842 495.402897,114.992547 476.659546,114.992547" fill="#2E2E30" id="Fill-9"/><path d="M500.184562,184.717652 C500.184562,222.279672 426.228238,256.654821 335.002292,256.654821 C243.769427,256.654821 169.813103,222.279672 169.813103,184.717652 L169.723157,183.856711 C169.723157,172.060432 180.295265,162.492879 193.337427,162.492879 L476.660238,162.492879 C489.7024,162.492879 500.274508,172.060432 500.274508,183.856711" fill="#A863A8" id="Fill-13"/><path d="M476.663697,162.49149 L455.927697,162.49149 C452.066941,198.845415 379.681211,231.38065 290.925319,231.38065 C250.622616,231.38065 213.703265,224.6667 185.031265,213.939654 C211.219373,238.38621 268.501103,256.653432 334.998832,256.653432 C426.231697,256.653432 500.188022,222.285226 500.188022,184.716264 L500.271049,183.855323 C500.271049,172.059044 489.705859,162.49149 476.663697,162.49149" fill="#010202" id="Fill-17" opacity="0.3"/><path d="M180.114681,183.390831 L180.135438,183.571351 C180.176951,183.95322 180.197708,184.335089 180.197708,184.716958 C180.197708,219.362887 263.411546,246.239519 335.0016,246.239519 C406.584735,246.239519 489.805492,219.362887 489.805492,184.716958 C489.805492,184.265658 489.833168,183.828245 489.8816,183.390831 C489.591005,177.572537 483.772195,172.906793 476.659546,172.906793 L193.336735,172.906793 C186.231005,172.906793 180.412195,177.565594 180.114681,183.390831 M335.0016,267.068735 C238.641816,267.068735 160.160519,230.457916 159.44787,185.334892 L159.406357,185.001624 C159.364843,184.626698 159.344086,184.244829 159.344086,183.856017 C159.344086,166.331704 174.593384,152.077577 193.336735,152.077577 L476.659546,152.077577 C495.402897,152.077577 510.652195,166.331704 510.652195,183.856017 C510.652195,184.348975 510.624519,184.83499 510.55533,185.300176 C509.877276,230.437087 431.382141,267.068735 335.0016,267.068735" fill="#2E2E30" id="Fill-15"/><path d="M312.026638,290.242626 L70.5010162,290.242626 C42.4448,290.242626 19.6953946,267.413805 19.6953946,239.252705 L19.6953946,239.252705 C19.6953946,211.091606 42.4448,188.269728 70.5010162,188.269728 L312.026638,188.269728 C340.089773,188.269728 362.839178,211.091606 362.839178,239.252705 L362.839178,239.252705 C362.839178,267.413805 340.089773,290.242626 312.026638,290.242626" fill="#FEFEFE" id="Fill-19"/><path d="M312.026638,188.266256 L277.432043,188.266256 C305.495178,188.266256 328.244584,211.095077 328.244584,239.256177 C328.244584,267.417277 305.495178,290.246098 277.432043,290.246098 L312.026638,290.246098 C340.089773,290.246098 362.839178,267.417277 362.839178,239.256177 C362.839178,211.095077 340.089773,188.266256 312.026638,188.266256" fill="#010202" id="Fill-23" opacity="0.3"/><path d="M70.5065514,198.680864 C48.2068757,198.680864 30.0723892,216.885599 30.0723892,239.256177 C30.0723892,261.626755 48.2068757,279.83149 70.5065514,279.83149 L312.025254,279.83149 C334.32493,279.83149 352.459416,261.626755 352.459416,239.256177 C352.459416,216.885599 334.32493,198.680864 312.025254,198.680864 L70.5065514,198.680864 Z M312.025254,300.660705 L70.5065514,300.660705 C36.7699027,300.660705 9.31563243,273.110596 9.31563243,239.256177 C9.31563243,205.394815 36.7699027,177.851649 70.5065514,177.851649 L312.025254,177.851649 C345.768822,177.851649 373.216173,205.394815 373.216173,239.256177 C373.216173,273.110596 345.768822,300.660705 312.025254,300.660705 L312.025254,300.660705 Z" fill="#2E2E30" id="Fill-21"/><path d="M10.476627,181.92376 C10.476627,140.640254 91.7462486,102.869943 192.001384,102.869943 C292.2496,102.869943 373.526141,140.640254 373.526141,181.92376 L373.623005,182.868018 C373.623005,195.837676 362.006141,206.349487 347.677059,206.349487 L36.3257081,206.349487 C21.996627,206.349487 10.3797622,195.837676 10.3797622,182.868018" fill="#EE64A4" id="Fill-25"/><path d="M373.523373,181.92376 C373.523373,140.640254 292.253751,102.869943 191.998616,102.869943 C183.785859,102.869943 175.711481,103.147666 167.7824,103.640624 C256.579805,109.111765 325.090941,144.028473 325.090941,181.92376 L325.187805,182.868018 C325.187805,195.837676 313.570941,206.349487 299.241859,206.349487 L347.674292,206.349487 C362.003373,206.349487 373.620238,195.837676 373.620238,182.868018 L373.523373,181.92376 Z" fill="#010202" id="Fill-29" opacity="0.3"/><path d="M20.7636757,183.31654 C21.0473514,190.315157 27.9178378,195.932102 36.3243243,195.932102 L347.675676,195.932102 C356.075243,195.932102 362.938811,190.3221 363.236324,183.33737 L363.20173,183.031875 C363.160216,182.663892 363.139459,182.295909 363.139459,181.920983 C363.139459,149.524609 289.951135,113.288717 192,113.288717 C94.0488649,113.288717 20.8605405,149.524609 20.8605405,181.920983 C20.8605405,182.393112 20.8259459,182.865241 20.7636757,183.31654 M347.675676,216.761318 L36.3243243,216.761318 C16.2940541,216.761318 0,201.555991 0,182.872184 C0,182.36534 0.0345945946,181.872382 0.110702703,181.386366 C0.726486486,132.298848 86.5764324,92.4595008 192,92.4595008 C297.382054,92.4595008 383.204324,132.264132 383.889297,181.323879 L383.93773,181.754349 C383.979243,182.129275 384,182.497258 384,182.872184 C384,201.555991 367.705946,216.761318 347.675676,216.761318" fill="#2E2E30" id="Fill-27"/><path d="M373.523373,294.415412 C373.523373,335.698918 292.253751,373.46923 191.998616,373.46923 C91.7504,373.46923 10.4738595,335.698918 10.4738595,294.415412 L10.3769946,293.471154 C10.3769946,280.501496 21.9938595,269.989685 36.3229405,269.989685 L347.674292,269.989685 C362.003373,269.989685 373.620238,280.501496 373.620238,293.471154" fill="#EE64A4" id="Fill-31"/><path d="M347.675676,269.991074 L324.884757,269.991074 C320.643459,309.94151 241.103568,345.691387 143.567568,345.691387 C99.2726486,345.691387 58.707027,338.317845 27.1982703,326.521566 C55.980973,353.391254 118.922378,373.463675 192,373.463675 C292.255135,373.463675 373.524757,335.693364 373.524757,294.416801 L373.621622,293.472543 C373.621622,280.502885 362.004757,269.991074 347.675676,269.991074" fill="#010202" id="Fill-35" opacity="0.3"/><path d="M20.7636757,293.001803 L20.7982703,293.300355 C20.8397838,293.675281 20.8605405,294.043264 20.8605405,294.418189 C20.8605405,326.814563 94.0488649,363.050456 192,363.050456 C289.951135,363.050456 363.139459,326.814563 363.139459,294.418189 C363.139459,293.946061 363.174054,293.473932 363.236324,293.022632 C362.952649,286.024015 356.082162,280.40707 347.675676,280.40707 L36.3243243,280.40707 C27.9247568,280.40707 21.0611892,286.017072 20.7636757,293.001803 M192,383.879672 C86.6179459,383.879672 0.795675676,344.068097 0.110702703,295.015294 L0.0622702703,294.584823 C0.0207567568,294.209897 0,293.841915 0,293.466989 C0,274.776239 16.2940541,259.577854 36.3243243,259.577854 L347.675676,259.577854 C367.705946,259.577854 384,274.776239 384,293.466989 C384,293.973833 383.965405,294.466791 383.889297,294.952806 C383.273514,344.040325 297.423568,383.879672 192,383.879672" fill="#2E2E30" id="Fill-33"/></g></g></g></svg>